<?xml version="1.0" encoding="utf-8"?>
<!-- Generator: Adobe Illustrator 15.0.2, SVG Export Plug-In . SVG Version: 6.00 Build 0)  -->
<!DOCTYPE svg PUBLIC "-//W3C//DTD SVG 1.1//EN" "http://www.w3.org/Graphics/SVG/1.1/DTD/svg11.dtd">
<svg version="1.1" id="Calque_1" xmlns="http://www.w3.org/2000/svg" xmlns:xlink="http://www.w3.org/1999/xlink" x="0px" y="0px"
	 width="453.542px" height="114.386px" viewBox="0 0 453.542 114.386" enable-background="new 0 0 453.542 114.386"
	 xml:space="preserve">
<rect x="56.693" y="57.192" fill="#CAB448" stroke="#000000" stroke-miterlimit="10" width="56.692" height="56.693"/>
<rect y="0.5" fill="#CAB448" stroke="#000000" stroke-miterlimit="10" width="56.692" height="56.693"/>
<rect x="56.693" y="0.5" fill="#CAB448" stroke="#000000" stroke-miterlimit="10" width="56.692" height="56.693"/>
<rect y="57.192" fill="#CAB448" stroke="#000000" stroke-miterlimit="10" width="56.692" height="56.693"/>
<rect x="113.386" y="0.5" fill="#CAB448" stroke="#000000" stroke-miterlimit="10" width="56.692" height="56.693"/>
<rect x="170.079" y="0.5" fill="#CAB448" stroke="#000000" stroke-miterlimit="10" width="56.692" height="56.693"/>
<rect x="170.079" y="57.192" fill="#CAB448" stroke="#000000" stroke-miterlimit="10" width="56.692" height="56.693"/>
<rect x="113.386" y="57.192" fill="#CAB448" stroke="#000000" stroke-miterlimit="10" width="56.692" height="56.693"/>
<rect x="226.772" y="0.5" fill="#CAB448" stroke="#000000" stroke-miterlimit="10" width="56.693" height="56.693"/>
<rect x="226.772" y="57.192" fill="#CAB448" stroke="#000000" stroke-miterlimit="10" width="56.693" height="56.693"/>
<rect x="283.465" y="0.5" fill="#35C3C8" stroke="#000000" stroke-miterlimit="10" width="56.692" height="56.693"/>
<rect x="340.158" y="0.5" fill="#35C3C8" stroke="#000000" stroke-miterlimit="10" width="56.692" height="56.693"/>
<rect x="340.158" y="57.192" fill="#35C3C8" stroke="#000000" stroke-miterlimit="10" width="56.692" height="56.693"/>
<rect x="283.465" y="57.192" fill="#35C3C8" stroke="#000000" stroke-miterlimit="10" width="56.692" height="56.693"/>
<rect x="396.85" y="57.427" fill="#6ABF57" stroke="#000000" stroke-miterlimit="10" width="56.692" height="56.693"/>
<rect x="396.851" y="0.5" fill="#CC1C2B" stroke="#000000" stroke-miterlimit="10" width="56.692" height="56.693"/>
<rect y="0.5" fill="none" stroke="#000000" stroke-miterlimit="10" width="453.543" height="113.386"/>
<path fill="none" stroke="#000000" stroke-miterlimit="10" d="M226.771,57.193"/>
<line fill="none" stroke="#000000" stroke-miterlimit="10" x1="0" y1="57.193" x2="453.543" y2="57.193"/>
<line fill="none" stroke="#000000" stroke-miterlimit="10" x1="56.693" y1="0.5" x2="56.693" y2="113.886"/>
<line fill="none" stroke="#000000" stroke-miterlimit="10" x1="113.386" y1="0.5" x2="113.386" y2="113.886"/>
<line fill="none" stroke="#000000" stroke-miterlimit="10" x1="170.079" y1="0.5" x2="170.079" y2="113.886"/>
<line fill="none" stroke="#000000" stroke-miterlimit="10" x1="226.771" y1="0.5" x2="226.771" y2="113.886"/>
<line fill="none" stroke="#000000" stroke-miterlimit="10" x1="283.465" y1="0.5" x2="283.465" y2="113.886"/>
<line fill="none" stroke="#000000" stroke-miterlimit="10" x1="340.157" y1="0.5" x2="340.157" y2="113.886"/>
<line fill="none" stroke="#000000" stroke-miterlimit="10" x1="396.851" y1="0.5" x2="396.851" y2="113.886"/>
<g>
	<path stroke="#FFFFFF" stroke-width="2" d="M269.854,87.502c0,5.684-1.153,10.088-3.457,13.213
		c-2.539,3.359-6.309,5.039-11.309,5.039c-5.059,0-8.858-2.236-11.396-6.709c-2.09-3.769-3.135-8.632-3.135-14.59
		c0-5.625,1.182-10.059,3.545-13.301c2.539-3.574,6.309-5.361,11.309-5.361c5.156,0,8.965,2.305,11.426,6.914
		C268.848,76.418,269.854,81.35,269.854,87.502z M263.087,87.619c0-4.238-0.4-7.471-1.201-9.697
		c-1.191-3.417-3.409-5.127-6.65-5.127c-5.332,0-7.998,3.604-7.998,10.811c0,0.312,0.01,0.664,0.029,1.055
		c0.019,0.391,0.048,0.811,0.088,1.26c0.234,3.594,0.801,6.27,1.699,8.027c1.25,2.578,3.281,3.867,6.094,3.867
		C260.44,97.814,263.087,94.416,263.087,87.619z"/>
</g>
<g>
	<path stroke="#FFFFFF" stroke-width="2" d="M37.091,48.709l-8.262,0.205l-1.846-32.49l-4.951,5.889l-3.486-7.061l4.746-5.391
		l10.898-0.645L37.091,48.709z"/>
</g>
<g>
	<path stroke="#FFFFFF" stroke-width="2" d="M101.812,21.136c0,1.819-0.362,3.482-1.084,4.989c-1.25,2.543-3.652,4.314-7.207,5.312
		c-0.391,0.098-1.343,0.27-2.856,0.514c-1.514,0.245-3.608,0.562-6.284,0.954c-3.262,0.47-5.137,1.321-5.625,2.553
		c-0.43,0.998-0.645,2.319-0.645,3.962l21.416,1.438l-0.615,8.057L69.38,47.567v-0.499c0-0.293,0.029-1.399,0.088-3.317
		c0.039-1.096,0.078-2.182,0.117-3.258c0.039-1.076,0.078-2.163,0.117-3.258c0.215-2.798,0.684-4.813,1.406-6.047
		c1.23-2.171,3.613-3.581,7.148-4.227c1.542-0.136,3.076-0.269,4.6-0.396c1.523-0.127,3.047-0.259,4.57-0.396
		c3.242-0.372,5.234-1.37,5.977-2.994c0.234-0.489,0.352-1.047,0.352-1.673c0-2.035-2.793-3.434-8.379-4.198
		c-1.641-0.234-3.354-0.4-5.142-0.499s-3.677-0.127-5.669-0.088l-0.557-8.965c6.562,0.392,12.1,1.282,16.611,2.67
		C98.081,12.791,101.812,16.362,101.812,21.136z"/>
</g>
<g>
	<path stroke="#FFFFFF" stroke-width="2" d="M157.01,19.823c0,3.125-2.383,5.518-7.148,7.178c-3.516,1.211-7.09,1.797-10.723,1.758
		c3.496,0.918,6.816,2.373,9.961,4.365c4.141,2.676,6.211,5.527,6.211,8.555c0,4.961-5.088,7.441-15.264,7.441
		c-3.516,0-7.95-0.352-13.301-1.055l0.557-8.057c1.055,0.274,2.09,0.557,3.105,0.85c1.015,0.293,2.051,0.596,3.105,0.908
		c2.461,0.625,4.56,0.938,6.299,0.938c3.457,0,5.186-1.308,5.186-3.926c0-3.281-3.867-5.468-11.602-6.562
		c-0.82-0.078-2.021-0.224-3.604-0.439l0.645-8.555c0.879,0.157,1.733,0.303,2.563,0.439c0.83,0.137,1.665,0.283,2.505,0.439
		c1.953,0.352,3.652,0.527,5.098,0.527c4.296,0,6.445-1.455,6.445-4.365c0-2.832-3.867-4.248-11.602-4.248
		c-2.188,0-4.57,0.146-7.148,0.439l0.703-8.379c3.281,0.43,6.631,0.957,10.049,1.582C151.023,11.825,157.01,15.213,157.01,19.823z"
		/>
</g>
<g>
	<path stroke="#FFFFFF" stroke-width="2" d="M213.396,48.27l-8.408,1.055l-0.732-8.76l-19.658,1.699l-0.586-7.441l16.143-24.668
		l9.785-1.377L213.396,48.27z M204.958,32.977l-1.348-15.908l-11.66,17.109L204.958,32.977z"/>
</g>
<g>
	<path stroke="#FFFFFF" stroke-width="2" d="M272.022,37.254c0,6.075-4.6,10.049-13.799,11.924
		c-2.168,0.449-6.65,1.064-13.447,1.846l0.146-8.906c0.293-0.019,0.918-0.068,1.875-0.146c0.957-0.078,2.266-0.195,3.926-0.352
		c2.168-0.215,3.892-0.396,5.171-0.542c1.279-0.146,2.134-0.268,2.563-0.366c3.633-0.839,5.449-2.324,5.449-4.453
		c0-0.722-0.303-1.504-0.908-2.344c-0.605-0.879-1.739-1.445-3.398-1.699c-0.977-0.195-2.706-0.293-5.186-0.293h-0.645
		c-3.555,0-6.152-0.215-7.793-0.645c-2.695-0.722-4.619-2.178-5.771-4.365c-0.547-1.113-0.948-2.959-1.201-5.537
		c-0.078-1.015-0.151-2.011-0.22-2.988c-0.069-0.977-0.142-1.963-0.22-2.959c-0.04-0.429-0.088-0.957-0.146-1.582
		c-0.059-0.625-0.107-1.367-0.146-2.227l26.748-2.695l0.996,7.939l-18.604,2.402c0.059,1.582,0.341,2.881,0.85,3.896
		c0.625,1.25,2.529,2.002,5.713,2.256c2.695,0.215,4.8,0.396,6.313,0.542c1.513,0.146,2.456,0.269,2.827,0.366
		c3.593,0.762,6.074,2.373,7.441,4.834C271.534,32.841,272.022,34.872,272.022,37.254z"/>
</g>
<g>
	<path stroke="#FFFFFF" stroke-width="2" d="M42.614,92.043c0,4.083-1.396,7.402-4.189,9.961c-2.618,2.402-5.801,3.604-9.551,3.604
		c-3.711,0-7.012-1.25-9.902-3.75c-3.047-2.695-4.57-6.064-4.57-10.107c0-8.613,1.367-14.96,4.102-19.043
		c3.145-4.727,8.467-7.09,15.967-7.09c0.605,0,1.191,0.015,1.758,0.044c0.566,0.029,1.132,0.063,1.699,0.103l-0.322,7.002
		c-0.293-0.039-0.591-0.068-0.894-0.088c-0.303-0.019-0.62-0.029-0.952-0.029c-2.715,0-5.332,0.518-7.852,1.553
		c-3.281,1.367-5.059,3.271-5.332,5.713c1.973-1.211,4.003-1.816,6.094-1.816c3.73,0,6.943,1.289,9.639,3.867
		C41.178,84.66,42.614,88.02,42.614,92.043z M35.875,92.102c0-2.09-0.889-3.701-2.666-4.834c-1.484-0.977-3.233-1.465-5.244-1.465
		c-1.856,0-3.409,0.469-4.658,1.406c-1.426,1.074-2.139,2.588-2.139,4.541c0,1.934,0.879,3.516,2.637,4.746
		c1.484,1.074,3.174,1.611,5.068,1.611c1.816,0,3.379-0.479,4.688-1.436C35.104,95.559,35.875,94.035,35.875,92.102z"/>
</g>
<g>
	<path stroke="#FFFFFF" stroke-width="2" d="M99.087,68.259l-19.453,36.762l-8.379-0.469l16.699-30.043l-15.205-1.79l0.498-8.273
		L99.087,68.259z"/>
</g>
<g>
	<path stroke="#FFFFFF" stroke-width="2" d="M156.834,92.805c0,3.809-1.885,6.973-5.654,9.492c-3.262,2.208-6.729,3.311-10.4,3.311
		c-2.715,0-5.244-0.517-7.588-1.553c-2.773-1.25-4.707-3.047-5.801-5.391c-0.664-1.387-0.996-2.734-0.996-4.043
		c0-2.07,0.751-4.003,2.256-5.801c1.308-1.621,2.939-2.773,4.893-3.457c-1.895-0.449-3.467-1.299-4.717-2.549
		c-1.426-1.425-2.139-3.125-2.139-5.098c0-3.379,1.484-6.27,4.453-8.672c2.695-2.227,5.625-3.34,8.789-3.34
		c2.324,0,4.521,0.547,6.592,1.641c2.324,1.191,3.974,2.861,4.951,5.01c0.684,1.465,1.025,2.744,1.025,3.838
		c0,2.871-1.553,5.244-4.658,7.119c2.363,0.274,4.414,1.241,6.152,2.9C155.887,88.049,156.834,90.246,156.834,92.805z
		 M149.95,93.215c0-2.676-2.12-4.014-6.357-4.014c-2.09,0-4.043,0.333-5.859,0.996c-2.559,0.977-3.838,2.363-3.838,4.16
		c0,2.598,2.099,3.896,6.299,3.896c2.109,0,4.072-0.312,5.889-0.938C148.661,96.418,149.95,95.051,149.95,93.215z M145.292,76.662
		c0-1.172-0.615-2.041-1.846-2.607c-0.938-0.469-2.012-0.703-3.223-0.703c-1.211,0-2.442,0.352-3.691,1.055
		c-1.465,0.86-2.197,1.875-2.197,3.047c0,1.133,0.605,1.982,1.816,2.549c0.898,0.41,1.943,0.615,3.135,0.615
		c1.27,0,2.52-0.322,3.75-0.967C144.54,78.889,145.292,77.893,145.292,76.662z"/>
</g>
<g>
	<path stroke="#FFFFFF" stroke-width="2" d="M212.664,79.299c0,6.836-0.898,12.539-2.695,17.109
		c-2.559,6.133-6.523,9.199-11.895,9.199c-0.547,0-1.25-0.044-2.109-0.132c-0.86-0.088-1.904-0.209-3.135-0.366
		c-1.484-0.215-2.935-0.425-4.351-0.63c-1.417-0.205-2.798-0.415-4.146-0.63l1.348-7.793c4.512,1.836,8.262,2.754,11.25,2.754
		c2.207,0,3.974-0.664,5.303-1.992c1.308-1.348,1.953-3.232,1.934-5.654c-1.797,0.938-3.662,1.406-5.596,1.406
		c-3.652,0-6.866-1.201-9.639-3.604c-3.008-2.578-4.512-5.83-4.512-9.756c0-4.062,1.396-7.431,4.189-10.107
		c2.656-2.539,5.859-3.809,9.609-3.809c3.652,0,6.933,1.289,9.844,3.867C211.13,71.916,212.664,75.295,212.664,79.299z
		 M205.867,79.797c0-1.953-0.85-3.633-2.549-5.039c-1.543-1.308-3.223-1.963-5.039-1.963c-1.836,0-3.438,0.538-4.805,1.611
		c-1.543,1.23-2.314,2.812-2.314,4.746c0,2.109,1.035,3.691,3.105,4.746c1.601,0.84,3.467,1.26,5.596,1.26
		C203.864,85.158,205.867,83.371,205.867,79.797z"/>
</g>
<g>
	<path stroke="#FFFFFF" stroke-width="2" d="M321.405,25.843l-0.439,6.504l-6.24-0.059l-0.322,7.061l-6.797-0.293l0.352-7.354
		l-5.742,0.088l0.41-6.504l5.889,0.117l0.352-7.061l6.709,0.088l-0.352,7.354L321.405,25.843z"/>
</g>
<g>
	<path stroke="#FFFFFF" stroke-width="2" d="M321.112,88.703l-18.604,0.908v-6.943l18.457-1.201L321.112,88.703z"/>
</g>
<g>
	<path stroke="#FFFFFF" stroke-width="2" d="M380.105,34.413l-3.721,5.391l-5.596-5.391l0.264,6.592l-5.918,0.469l0.205-6.768
		l-4.541,4.717l-3.896-5.42l7.148-5.156l-6.65-4.424l3.457-5.859l4.277,3.809V16.6l5.947-0.381l-0.029,6.152l4.6-4.307l3.691,6.387
		l-7.09,4.248L380.105,34.413z"/>
</g>
<g>
	<path stroke="#FFFFFF" stroke-width="2" d="M379.402,89.04l-21.65-0.352l-0.146-6.094l21.738-0.498L379.402,89.04z M371.844,71.638
		l-0.088,7.207l-6.211-0.059l-0.498-6.709L371.844,71.638z M372.342,99.382l-6.211,0.059l0.176-6.797l6.035,0.381V99.382z"/>
</g>
<g>
	<path stroke="#FFFFFF" stroke-width="2" stroke-miterlimit="10" d="M443.097,45.296l-9.199,2.842l-9.844-13.213l-6.006,14.414
		l-8.35-0.41L419.659,31l-12.363-20.361l7.266-1.113l9.053,16.055l6.533-17.227l8.906,0.527l-10.898,20.596L443.097,45.296z"/>
</g>
<g>
	<path stroke="#FFFFFF" stroke-width="2" d="M433.751,83.225l-18.193,1.436v-6.797l18.047-1.348L433.751,83.225z M434.835,94.064
		l-19.131,0.498l-0.117-6.24l18.662-0.703L434.835,94.064z"/>
</g>
</svg>
